<svg width="320" height="96" viewBox="0 0 320 96" fill="none" xmlns="http://www.w3.org/2000/svg">
  <style>
    @import url('https://fonts.googleapis.com/css2?family=Oswald:wght@500;600&display=swap');
    .wordmark {
      font-family: 'Oswald', 'Arial Black', sans-serif;
      font-size: 52px;
      letter-spacing: 2px;
      font-weight: 600;
      text-transform: uppercase;
    }
  </style>
  <defs>
    <linearGradient id="markGradient" x1="8" y1="8" x2="88" y2="88" gradientUnits="userSpaceOnUse">
      <stop offset="0" stop-color="#c913cf" />
      <stop offset="0.5" stop-color="#7a22dd" />
      <stop offset="1" stop-color="#2433ee" />
    </linearGradient>
    <linearGradient id="textGradient" x1="110" y1="24" x2="300" y2="72" gradientUnits="userSpaceOnUse">
      <stop offset="0" stop-color="#ffffff" />
      <stop offset="1" stop-color="#d7cbff" />
    </linearGradient>
  </defs>
  <g>
    <circle cx="48" cy="48" r="40" fill="url(#markGradient)" />
    <path
      d="M34 28h28c1.66 0 3 1.34 3 3v5c0 1.66-1.34 3-3 3h-9v21.6c0 6.84-5.24 12.4-11.84 12.4h-6.32c-1.66 0-3-1.34-3-3v-5.52c0-1.66 1.34-3 3-3h5.06c1.84 0 2.94-1.14 2.94-2.7V39H34c-1.66 0-3-1.34-3-3v-5c0-1.66 1.34-3 3-3Z"
      fill="#ffffff"
    />
    <circle cx="63.5" cy="44.5" r="7.2" fill="#522ae5" opacity="0.65" />
  </g>
  <text class="wordmark" fill="url(#textGradient)" x="112" y="64">TaxChela</text>
</svg>
