<svg width="96" height="96" viewBox="0 0 96 96" fill="none" xmlns="http://www.w3.org/2000/svg">
  <defs>
    <linearGradient id="gradient-core" x1="12" y1="12" x2="84" y2="84" gradientUnits="userSpaceOnUse">
      <stop offset="0" stop-color="#c913cf" />
      <stop offset="0.45" stop-color="#7a22dd" />
      <stop offset="1" stop-color="#2433ee" />
    </linearGradient>
    <linearGradient id="gradient-glow" x1="32" y1="12" x2="66" y2="84" gradientUnits="userSpaceOnUse">
      <stop offset="0" stop-color="#ffffff" stop-opacity="0.85" />
      <stop offset="1" stop-color="#ffffff" stop-opacity="0" />
    </linearGradient>
  </defs>
  <circle cx="48" cy="48" r="42" fill="url(#gradient-core)" />
  <path
    d="M32 26h32c1.66 0 3 1.34 3 3v6c0 1.66-1.34 3-3 3H53v24.64c0 7.64-6.2 13.36-14.04 13.36h-6.96c-1.66 0-3-1.34-3-3v-6.08c0-1.66 1.34-3 3-3h5.7c2.06 0 3.3-1.32 3.3-3.12V38H32c-1.66 0-3-1.34-3-3v-6c0-1.66 1.34-3 3-3Z"
    fill="#ffffff"
  />
  <path
    d="M59.4 40.88c5.04 0 9.12 4.08 9.12 9.12S64.44 59.12 59.4 59.12c-5.04 0-9.12-4.08-9.12-9.12s4.08-9.12 9.12-9.12Z"
    fill="#522ae5"
    opacity="0.65"
  />
  <path
    d="M56.12 37.2c6.52 0 11.8 5.28 11.8 11.8 0 6.52-5.28 11.8-11.8 11.8-6.52 0-11.8-5.28-11.8-11.8 0-6.52 5.28-11.8 11.8-11.8Zm0 6.32a5.48 5.48 0 1 0 0 10.96 5.48 5.48 0 0 0 0-10.96Z"
    fill="#ffffff"
    opacity="0.8"
  />
  <circle cx="48" cy="48" r="40" stroke="url(#gradient-glow)" stroke-width="4" />
</svg>
